<?xml version="1.0" standalone="no"?><!DOCTYPE svg PUBLIC "-//W3C//DTD SVG 1.1//EN" "http://www.w3.org/Graphics/SVG/1.1/DTD/svg11.dtd"><svg t="1780193475135" class="icon" viewBox="0 0 1024 1024" version="1.1" xmlns="http://www.w3.org/2000/svg" p-id="11767" xmlns:xlink="http://www.w3.org/1999/xlink" width="200" height="200"><path d="M511.097489 528.315611m-447.270186 0a447.270185 447.270185 0 1 0 894.540371 0 447.270185 447.270185 0 1 0-894.540371 0Z" fill="#FF805F" p-id="11768"></path><path d="M511.097489 528.315611m-371.461265 0a371.461264 371.461264 0 1 0 742.922529 0 371.461264 371.461264 0 1 0-742.922529 0Z" fill="#F96333" p-id="11769"></path><path d="M564.641059 732.472986c-2.026442 0-4.033497-0.145912-5.98137-0.452021-12.141304-1.940731-21.192948-9.556724-25.49276-21.438856-4.466131-12.347418-10.3873-30.025214-14.367737-42.053258l-26.862088 9.396527c-4.74469 1.687681-10.041396 0.571404-13.749397-2.858038-0.245908-0.2255-24.900949-23.046949-47.077528-41.21656l-1.203008-0.877513c-23.200003-15.803389-48.426448-30.303773-48.672356-30.450705a13.594302 13.594302 0 0 1-6.791539-12.918822l2.239698-27.286558c-12.912699-0.611198-31.945538-1.581563-45.323523-2.565194-12.812704-0.943836-23.007155-7.922102-27.9651-19.139977-4.950803-11.217875-4.213081-26.410067 1.647886-33.879127 1.195866-1.541769 5.794644-7.708846 11.662754-15.591153 10.659737-14.301414 25.432558-34.118912 32.225118-42.798124 13.291254-16.95946 25.392764-18.355318 31.892479-19.112427l75.201805-9.755695c58.376012-72.889661 199.296364-94.262194 205.397117-95.15297 4.106963-0.664257 8.094543 0.717315 10.985232 3.269244a13.568793 13.568793 0 0 1 6.267073 9.901607c0.724458 5.994635 16.641107 144.769163-40.106405 219.054681l9.808753 72.159081c1.12342 7.456816 2.937626 19.431801-10.466888 36.538194-6.751745 8.612888-22.269432 27.48655-33.593425 41.256354-6.37319 7.735375-11.390317 13.836128-12.626997 15.404427-4.957946 6.353803-16.249288 10.566884-27.047794 10.566883z m-37.236122-94.992773c2.073378 0 4.146757 0.47855 6.040551 1.409121a13.641239 13.641239 0 0 1 6.9048 8.00169c0.11326 0.345903 11.344401 34.889287 18.415519 54.441491 1.029547 2.844773 2.272349 3.269244 3.010072 3.522294 3.036602 1.023425 7.555791-0.092853 9.4904-0.98363 2.120315-2.618253 6.592568-8.068014 12.029064-14.673846 11.184203-13.597363 26.522306-32.23124 33.188341-40.73801 6.153812-7.854758 5.701791-10.858708 5.130387-14.647317a101.145565 101.145565 0 0 1-0.212235-1.448916l-10.593413-77.927196a13.610628 13.610628 0 0 1 3.070273-10.593413c44.033784-52.368112 41.35635-154.524857 38.876867-190.344715-35.780064 6.99153-137.930687 31.287404-178.36973 86.765583a13.599404 13.599404 0 0 1-9.244493 5.476291l-79.741401 10.366892c-0.060201 0-1.388715 0.159177-1.455039 0.172442-4.086556 0.465286-7.309884 0.837718-13.584098 8.851652-6.711951 8.573093-21.299066 28.150807-31.826155 42.279779-4.964068 6.658892-9.051644 12.135182-11.051557 14.779965-0.332638 1.953996-0.266315 6.021165 1.356063 8.413916 0.385697 0.571404 1.182601 1.754005 4.525312 2.007055 21.166419 1.555034 58.242344 3.136597 58.614777 3.149862a13.611648 13.611648 0 0 1 9.623047 4.585513 13.610628 13.610628 0 0 1 3.363118 10.128128l-2.691718 32.829172c9.503665 5.648732 26.655974 16.082968 43.429728 27.51308l2.166232 1.594828c16.654372 13.637157 33.886269 29.068113 42.758329 37.136127l32.278176-11.297464a13.454512 13.454512 0 0 1 4.498783-0.770374z" fill="#FFC767" p-id="11770"></path><path d="M606.255561 446.670211c-7.417022 0-14.60038-2.419282-20.601137-7.004795-7.217031-5.529349-11.84948-13.531039-13.045347-22.541868-1.195866-9.01185 1.189744-17.943091 6.711951-25.160122 5.529349-7.217031 13.537162-11.855603 22.549011-13.039224 8.98532-1.169336 17.929826 1.182601 25.146857 6.698686 7.217031 5.529349 11.84948 13.531039 13.045346 22.541869 1.195866 9.01185-1.182601 17.943091-6.705828 25.160121-5.529349 7.217031-13.537162 11.855603-22.549012 13.039224-1.521362 0.199991-3.042724 0.306109-4.551841 0.306109z m0.113261-40.830862a7.285395 7.285395 0 0 0-0.917307 0.066323 6.741541 6.741541 0 0 0-4.512047 2.604988 6.76501 6.76501 0 0 0-1.348921 5.02427 6.791539 6.791539 0 0 0 2.604988 4.505924c0.837718 0.637727 2.551929 1.621357 5.037534 1.342799a6.740521 6.740521 0 0 0 4.505925-2.604988c0.637727-0.837718 1.661152-2.604988 1.342798-5.02427a6.791539 6.791539 0 0 0-2.604987-4.505925c-0.731601-0.559159-2.153987-1.409122-4.107983-1.409121zM382.164366 718.876644a13.628994 13.628994 0 0 1-8.626152-3.083539 13.599404 13.599404 0 0 1-4.984476-10.44648l-0.398962-68.051098a13.607567 13.607567 0 0 1 6.267073-11.53725c3.921257-2.538664 8.864917-2.844773 13.098405-0.877512 2.073378 0.970366 50.912053 24.057108 73.773296 59.930025a13.611648 13.611648 0 0 1 1.030567 12.680057 13.581037 13.581037 0 0 1-9.908749 7.988425l-67.653157 13.145342c-0.863227 0.171421-1.733597 0.25203-2.597845 0.25203z m13.351456-58.376012l0.159176 28.270189 29.128315-5.648732c-9.357753-9.170006-20.203196-16.906402-29.287491-22.621457z" fill="#FFC767" p-id="11771"></path></svg>